<svg width="142" height="41" viewBox="0 0 142 41" fill="none" xmlns="http://www.w3.org/2000/svg">
<g clip-path="url(#clip0_608_18789)">
<path d="M59.8591 15.7872L56.5366 27.3984H53.7569L51.4542 19.5428H51.4049L49.1022 27.3984H46.306L43 15.7872H46.0264L47.8686 23.5116H47.9179L49.9903 15.7872H52.9181L55.007 23.5116H55.0563L56.9314 15.7872H59.8591ZM70.1453 24.02C70.1453 24.6213 70.0192 25.1516 69.767 25.6108C69.5258 26.0591 69.1858 26.4089 68.7472 26.6604C68.3196 26.9119 67.8481 27.0977 67.3327 27.218C66.8283 27.3383 66.2855 27.3984 65.7044 27.3984H61.0661V15.7872H65.7044C66.1978 15.7872 66.6584 15.8364 67.086 15.9348C67.5246 16.0223 67.9468 16.1753 68.3525 16.394C68.7582 16.6017 69.0762 16.9133 69.3065 17.3288C69.5477 17.7333 69.6683 18.2144 69.6683 18.772C69.6683 19.3952 69.4984 19.92 69.1584 20.3464C68.8185 20.7728 68.3525 21.0844 67.7604 21.2812V21.314C68.4621 21.4343 69.0323 21.7349 69.4709 22.216C69.9205 22.6861 70.1453 23.2875 70.1453 24.02ZM66.9544 19.1492C66.9544 18.3948 66.3568 18.0176 65.1616 18.0176H63.78V20.412H65.2932C65.8195 20.412 66.2252 20.3027 66.5103 20.084C66.8064 19.8653 66.9544 19.5537 66.9544 19.1492ZM67.3327 23.7576C67.3327 22.9048 66.6693 22.4784 65.3425 22.4784H63.78V25.1352H65.359C66.6748 25.1352 67.3327 24.676 67.3327 23.7576ZM80.5412 27.3984H78.0576V26.3324H78.0247C77.7615 26.7369 77.3832 27.054 76.8898 27.2836C76.4073 27.5132 75.8919 27.628 75.3437 27.628C74.1594 27.628 73.2109 27.2071 72.4982 26.3652C71.7964 25.5124 71.4455 24.4847 71.4455 23.282C71.4455 22.1012 71.8019 21.0953 72.5146 20.2644C73.2274 19.4225 74.1594 19.0016 75.3108 19.0016C76.3525 19.0016 77.1858 19.3679 77.8108 20.1004H77.8437V15H80.5412V27.3984ZM77.9589 23.2984C77.9589 22.7517 77.7725 22.2652 77.3996 21.8388C77.0378 21.4124 76.5663 21.1992 75.9851 21.1992C75.382 21.1992 74.905 21.4069 74.5542 21.8224C74.2142 22.2269 74.0443 22.7135 74.0443 23.282C74.0443 23.8615 74.2142 24.3589 74.5542 24.7744C74.905 25.1899 75.382 25.3976 75.9851 25.3976C76.5663 25.3976 77.0378 25.1899 77.3996 24.7744C77.7725 24.348 77.9589 23.856 77.9589 23.2984ZM85.6104 16.6236C85.6104 17.0391 85.4569 17.3889 85.1499 17.6732C84.8538 17.9575 84.492 18.0996 84.0643 18.0996C83.6367 18.0996 83.2693 17.9575 82.9623 17.6732C82.6663 17.378 82.5182 17.0281 82.5182 16.6236C82.5182 16.23 82.6663 15.8856 82.9623 15.5904C83.2693 15.2952 83.6367 15.1476 84.0643 15.1476C84.492 15.1476 84.8538 15.2952 85.1499 15.5904C85.4569 15.8747 85.6104 16.2191 85.6104 16.6236ZM85.413 27.3984H82.7156V19.2312H85.413V27.3984ZM93.8492 20.1168L92.3689 21.642C91.8535 21.15 91.2833 20.904 90.6583 20.904C90.3732 20.904 90.1319 20.9587 89.9346 21.068C89.7372 21.1773 89.6385 21.3413 89.6385 21.56C89.6385 21.7787 89.7427 21.9372 89.951 22.0356C90.1594 22.134 90.5541 22.2488 91.1353 22.38C92.8787 22.7736 93.7505 23.6045 93.7505 24.8728C93.7505 25.824 93.4051 26.5292 92.7143 26.9884C92.0344 27.4367 91.212 27.6608 90.2471 27.6608C89.5672 27.6608 88.9038 27.5515 88.2569 27.3328C87.6209 27.1141 87.0946 26.8025 86.6779 26.398L88.1911 24.8072C88.7503 25.4195 89.4192 25.7256 90.1977 25.7256C90.4609 25.7256 90.6857 25.6709 90.8721 25.5616C91.0695 25.4413 91.1682 25.2609 91.1682 25.0204C91.1682 24.7799 91.0475 24.5995 90.8063 24.4792C90.576 24.3589 90.1539 24.2277 89.5398 24.0856C87.9499 23.7139 87.1549 22.9212 87.1549 21.7076C87.1549 20.8111 87.5003 20.1332 88.1911 19.674C88.8819 19.2039 89.6714 18.9688 90.5596 18.9688C91.9302 18.9688 93.0268 19.3515 93.8492 20.1168ZM102.512 20.0676L100.949 21.8716C100.807 21.6748 100.599 21.5163 100.324 21.396C100.061 21.2757 99.7926 21.2156 99.5185 21.2156C98.9592 21.2156 98.5042 21.4233 98.1533 21.8388C97.8024 22.2433 97.627 22.7353 97.627 23.3148C97.627 23.8943 97.8024 24.3863 98.1533 24.7908C98.5042 25.1953 98.9702 25.3976 99.5514 25.3976C100.187 25.3976 100.675 25.1953 101.015 24.7908L102.512 26.6112C101.788 27.3109 100.779 27.6608 99.4856 27.6608C98.1588 27.6608 97.0623 27.2672 96.196 26.48C95.3298 25.6928 94.8966 24.6377 94.8966 23.3148C94.8966 22.0137 95.3298 20.9641 96.196 20.166C97.0732 19.3679 98.1643 18.9688 99.4691 18.9688C100.05 18.9688 100.62 19.0727 101.18 19.2804C101.75 19.4772 102.194 19.7396 102.512 20.0676ZM110.948 20.1496C111.826 20.9368 112.264 21.9809 112.264 23.282C112.264 24.5831 111.826 25.6381 110.948 26.4472C110.071 27.2563 108.991 27.6608 107.708 27.6608C106.436 27.6608 105.362 27.2563 104.484 26.4472C103.607 25.6381 103.169 24.5831 103.169 23.282C103.169 21.9809 103.607 20.9368 104.484 20.1496C105.362 19.3624 106.436 18.9688 107.708 18.9688C108.991 18.9688 110.071 19.3624 110.948 20.1496ZM109.665 23.282C109.665 22.7244 109.49 22.2379 109.139 21.8224C108.788 21.4069 108.311 21.1992 107.708 21.1992C107.105 21.1992 106.634 21.4069 106.294 21.8224C105.954 22.2269 105.784 22.7135 105.784 23.282C105.784 23.8505 105.954 24.348 106.294 24.7744C106.645 25.1899 107.122 25.3976 107.725 25.3976C108.328 25.3976 108.799 25.1899 109.139 24.7744C109.49 24.348 109.665 23.8505 109.665 23.282ZM121.966 27.3984H119.367V26.2668H119.334C119.137 26.6495 118.813 26.972 118.364 27.2344C117.914 27.4968 117.415 27.628 116.867 27.628C115.847 27.628 115.096 27.3055 114.614 26.6604C114.131 26.0044 113.89 25.2117 113.89 24.2824V19.2312H116.604V23.6592C116.604 24.8181 117.01 25.3976 117.821 25.3976C118.271 25.3976 118.622 25.2281 118.874 24.8892C119.137 24.5503 119.269 24.1348 119.269 23.6428V19.2312H121.966V27.3984ZM132.168 27.3984H129.454V22.9376C129.454 21.7896 129.048 21.2156 128.237 21.2156C127.776 21.2156 127.42 21.3851 127.168 21.724C126.915 22.0629 126.789 22.4784 126.789 22.9704V27.3984H124.075V19.2312H126.691V20.3628H126.724C126.921 19.9801 127.239 19.6576 127.678 19.3952C128.127 19.1328 128.626 19.0016 129.174 19.0016C130.194 19.0016 130.945 19.3296 131.428 19.9856C131.921 20.6307 132.168 21.4179 132.168 22.3472V27.3984ZM139.063 21.2484H137.139V24.3644C137.139 24.758 137.215 25.0477 137.369 25.2336C137.522 25.4195 137.786 25.5124 138.158 25.5124C138.476 25.5124 138.74 25.4687 138.948 25.3812L138.981 27.3492C138.531 27.5132 138.01 27.5952 137.418 27.5952C136.377 27.5952 135.631 27.3437 135.181 26.8408C134.732 26.3379 134.507 25.6217 134.507 24.6924V21.2484H133.191V19.2312H134.491V17.0828H137.139V19.2312H139.063V21.2484Z" fill="white"/>
<g filter="url(#filter0_dd_608_18789)">
<g clip-path="url(#clip1_608_18789)">
<rect x="2" y="5" width="32" height="32" rx="8" fill="white"/>
<rect x="2" y="5" width="32" height="32" rx="8" fill="url(#paint0_linear_608_18789)"/>
</g>

<rect x="2.15" y="5.15" width="31.7" height="31.7" rx="7.85" stroke="#D0D5DD" stroke-width="0.3"/>
</g>
<g filter="url(#filter1_d_608_18789)">

<path d="M11 14H28C28.5523 14 29 14.4477 29 15V27.6627C29 30.0582 27.0102 32 24.5556 32H15.4444C12.9898 32 11 30.0582 11 27.6627V14Z" fill="#936DE8"/>
</g>
<g filter="url(#filter2_d_608_18789)">
<path d="M8 15C8 14.4477 8.44772 14 9 14H26V27.6627C26 30.0582 24.0102 32 21.5556 32H12.4444C9.98984 32 8 30.0582 8 27.6627V15Z" fill="url(#paint1_linear_608_18789)"/>
</g>
<g filter="url(#filter3_d_608_18789)">
<path d="M16.5556 22.0382L26 17V27.4198C26 29.9495 24.0102 32 21.5556 32H12.4444C9.98984 32 8 29.9495 8 27.4198V26.7328L16.5556 22.0382Z" fill="url(#paint2_linear_608_18789)"/>
</g>
<g filter="url(#filter4_d_608_18789)">
<path d="M26 14C26 12.6739 25.4732 11.4021 24.5355 10.4645C23.5979 9.52679 22.3261 9 21 9C19.6739 9 18.4021 9.52679 17.4645 10.4645C16.5268 11.4021 16 12.6739 16 14H17.2955C17.2955 13.0175 17.6858 12.0753 18.3805 11.3805C19.0753 10.6858 20.0175 10.2955 21 10.2955C21.9825 10.2955 22.9247 10.6858 23.6195 11.3805C24.3142 12.0753 24.7045 13.0175 24.7045 14H26Z" fill="#936DE8"/>
</g>
<g filter="url(#filter5_d_608_18789)">
<path d="M23 14C23 12.6739 22.3678 11.4021 21.2426 10.4645C20.1174 9.52679 18.5913 9 17 9C15.4087 9 13.8826 9.52679 12.7573 10.4645C11.6321 11.4021 11 12.6739 11 14H12.5546C12.5546 13.0175 13.023 12.0753 13.8567 11.3805C14.6903 10.6858 15.821 10.2955 17 10.2955C18.179 10.2955 19.3097 10.6858 20.1434 11.3805C20.977 12.0753 21.4454 13.0175 21.4454 14H23Z" fill="#7F56D9"/>
</g>
<g filter="url(#filter6_d_608_18789)">
<path d="M13.5827 22.3389L12.9149 24H12.1455L11 21H11.9812L12.5907 22.5983L13.2326 21H13.9328L14.5747 22.5983L15.1842 21H16.1654L15.0199 24H14.2505L13.5827 22.3389ZM16.4896 24V21H18.6314C18.7986 21 18.9434 21.0126 19.0658 21.0377C19.1898 21.0614 19.2956 21.0941 19.3835 21.136C19.4714 21.1778 19.5435 21.2266 19.5997 21.2824C19.6559 21.3382 19.6998 21.3975 19.7315 21.4602C19.7646 21.523 19.787 21.5879 19.7985 21.6548C19.8115 21.7204 19.8179 21.7845 19.8179 21.8473C19.8179 21.917 19.8071 21.9826 19.7855 22.0439C19.7639 22.1053 19.7322 22.1611 19.6904 22.2113C19.6486 22.2615 19.5975 22.3054 19.537 22.3431C19.4779 22.3794 19.4109 22.4086 19.336 22.431C19.4469 22.4547 19.5399 22.4902 19.6148 22.5376C19.6912 22.5851 19.7517 22.6395 19.7963 22.7008C19.8424 22.7622 19.8749 22.8291 19.8936 22.9017C19.9138 22.9742 19.9238 23.0481 19.9238 23.1234C19.9238 23.1904 19.9159 23.2587 19.9001 23.3284C19.8842 23.3982 19.8576 23.4658 19.8201 23.5314C19.7826 23.5955 19.7322 23.6562 19.6688 23.7134C19.6069 23.7706 19.5291 23.8208 19.4354 23.864C19.3417 23.9058 19.2315 23.9393 19.1047 23.9644C18.9779 23.9882 18.831 24 18.6638 24H16.4896ZM18.6638 23.3075C18.9131 23.3075 19.0377 23.2232 19.0377 23.0544C19.0377 22.8856 18.9131 22.8013 18.6638 22.8013H17.4038V23.3075H18.6638ZM18.6314 22.1715C18.6905 22.1715 18.7395 22.1646 18.7784 22.1506C18.8187 22.1367 18.8504 22.1185 18.8735 22.0962C18.898 22.0739 18.9153 22.0488 18.9253 22.0209C18.9354 21.9916 18.9405 21.9623 18.9405 21.9331C18.9405 21.9038 18.9354 21.8752 18.9253 21.8473C18.9153 21.818 18.898 21.7922 18.8735 21.7699C18.8504 21.7476 18.8187 21.7294 18.7784 21.7155C18.7395 21.7015 18.6905 21.6946 18.6314 21.6946H17.4038V22.1715H18.6314ZM24 22.5C24 22.712 23.9712 22.9094 23.9136 23.092C23.8574 23.2734 23.7651 23.4317 23.6369 23.5669C23.5087 23.7022 23.3408 23.8082 23.1333 23.8849C22.9273 23.9617 22.6752 24 22.3769 24H20.3583V21H22.3769C22.6752 21 22.9273 21.0391 23.1333 21.1172C23.3408 21.1939 23.5087 21.2999 23.6369 21.4351C23.7651 21.569 23.8574 21.7273 23.9136 21.91C23.9712 22.0927 24 22.2894 24 22.5ZM21.2725 23.2636H22.3769C22.6218 23.2636 22.8005 23.2001 22.9129 23.0732C23.0253 22.9449 23.0815 22.7538 23.0815 22.5C23.0815 22.2462 23.0253 22.0558 22.9129 21.9289C22.8005 21.8006 22.6218 21.7364 22.3769 21.7364H21.2725V23.2636Z" fill="white"/>
</g>
</g>
<defs>
<filter id="filter0_dd_608_18789" x="-1" y="3" width="38" height="38" filterUnits="userSpaceOnUse" color-interpolation-filters="sRGB">
<feFlood flood-opacity="0" result="BackgroundImageFix"/>
<feColorMatrix in="SourceAlpha" type="matrix" values="0 0 0 0 0 0 0 0 0 0 0 0 0 0 0 0 0 0 127 0" result="hardAlpha"/>
<feOffset dy="1"/>
<feGaussianBlur stdDeviation="1"/>
<feColorMatrix type="matrix" values="0 0 0 0 0.0627451 0 0 0 0 0.0941176 0 0 0 0 0.156863 0 0 0 0.06 0"/>
<feBlend mode="normal" in2="BackgroundImageFix" result="effect1_dropShadow_608_18789"/>
<feColorMatrix in="SourceAlpha" type="matrix" values="0 0 0 0 0 0 0 0 0 0 0 0 0 0 0 0 0 0 127 0" result="hardAlpha"/>
<feOffset dy="1"/>
<feGaussianBlur stdDeviation="1.5"/>
<feColorMatrix type="matrix" values="0 0 0 0 0.0627451 0 0 0 0 0.0941176 0 0 0 0 0.156863 0 0 0 0.1 0"/>
<feBlend mode="normal" in2="effect1_dropShadow_608_18789" result="effect2_dropShadow_608_18789"/>
<feBlend mode="normal" in="SourceGraphic" in2="effect2_dropShadow_608_18789" result="shape"/>
</filter>
<filter id="filter1_d_608_18789" x="7" y="11" width="26" height="26" filterUnits="userSpaceOnUse" color-interpolation-filters="sRGB">
<feFlood flood-opacity="0" result="BackgroundImageFix"/>
<feColorMatrix in="SourceAlpha" type="matrix" values="0 0 0 0 0 0 0 0 0 0 0 0 0 0 0 0 0 0 127 0" result="hardAlpha"/>
<feOffset dy="1"/>
<feGaussianBlur stdDeviation="2"/>
<feComposite in2="hardAlpha" operator="out"/>
<feColorMatrix type="matrix" values="0 0 0 0 0 0 0 0 0 0 0 0 0 0 0 0 0 0 0.15 0"/>
<feBlend mode="normal" in2="BackgroundImageFix" result="effect1_dropShadow_608_18789"/>
<feBlend mode="normal" in="SourceGraphic" in2="effect1_dropShadow_608_18789" result="shape"/>
</filter>
<filter id="filter2_d_608_18789" x="4" y="11" width="26" height="26" filterUnits="userSpaceOnUse" color-interpolation-filters="sRGB">
<feFlood flood-opacity="0" result="BackgroundImageFix"/>
<feColorMatrix in="SourceAlpha" type="matrix" values="0 0 0 0 0 0 0 0 0 0 0 0 0 0 0 0 0 0 127 0" result="hardAlpha"/>
<feOffset dy="1"/>
<feGaussianBlur stdDeviation="2"/>
<feComposite in2="hardAlpha" operator="out"/>
<feColorMatrix type="matrix" values="0 0 0 0 0 0 0 0 0 0 0 0 0 0 0 0 0 0 0.15 0"/>
<feBlend mode="normal" in2="BackgroundImageFix" result="effect1_dropShadow_608_18789"/>
<feBlend mode="normal" in="SourceGraphic" in2="effect1_dropShadow_608_18789" result="shape"/>
</filter>
<filter id="filter3_d_608_18789" x="4" y="14" width="26" height="23" filterUnits="userSpaceOnUse" color-interpolation-filters="sRGB">
<feFlood flood-opacity="0" result="BackgroundImageFix"/>
<feColorMatrix in="SourceAlpha" type="matrix" values="0 0 0 0 0 0 0 0 0 0 0 0 0 0 0 0 0 0 127 0" result="hardAlpha"/>
<feOffset dy="1"/>
<feGaussianBlur stdDeviation="2"/>
<feComposite in2="hardAlpha" operator="out"/>
<feColorMatrix type="matrix" values="0 0 0 0 0 0 0 0 0 0 0 0 0 0 0 0 0 0 0.15 0"/>
<feBlend mode="normal" in2="BackgroundImageFix" result="effect1_dropShadow_608_18789"/>
<feBlend mode="normal" in="SourceGraphic" in2="effect1_dropShadow_608_18789" result="shape"/>
</filter>
<filter id="filter4_d_608_18789" x="12" y="6" width="18" height="13" filterUnits="userSpaceOnUse" color-interpolation-filters="sRGB">
<feFlood flood-opacity="0" result="BackgroundImageFix"/>
<feColorMatrix in="SourceAlpha" type="matrix" values="0 0 0 0 0 0 0 0 0 0 0 0 0 0 0 0 0 0 127 0" result="hardAlpha"/>
<feOffset dy="1"/>
<feGaussianBlur stdDeviation="2"/>
<feComposite in2="hardAlpha" operator="out"/>
<feColorMatrix type="matrix" values="0 0 0 0 0 0 0 0 0 0 0 0 0 0 0 0 0 0 0.15 0"/>
<feBlend mode="normal" in2="BackgroundImageFix" result="effect1_dropShadow_608_18789"/>
<feBlend mode="normal" in="SourceGraphic" in2="effect1_dropShadow_608_18789" result="shape"/>
</filter>
<filter id="filter5_d_608_18789" x="7" y="6" width="20" height="13" filterUnits="userSpaceOnUse" color-interpolation-filters="sRGB">
<feFlood flood-opacity="0" result="BackgroundImageFix"/>
<feColorMatrix in="SourceAlpha" type="matrix" values="0 0 0 0 0 0 0 0 0 0 0 0 0 0 0 0 0 0 127 0" result="hardAlpha"/>
<feOffset dy="1"/>
<feGaussianBlur stdDeviation="2"/>
<feComposite in2="hardAlpha" operator="out"/>
<feColorMatrix type="matrix" values="0 0 0 0 0 0 0 0 0 0 0 0 0 0 0 0 0 0 0.15 0"/>
<feBlend mode="normal" in2="BackgroundImageFix" result="effect1_dropShadow_608_18789"/>
<feBlend mode="normal" in="SourceGraphic" in2="effect1_dropShadow_608_18789" result="shape"/>
</filter>
<filter id="filter6_d_608_18789" x="7" y="18" width="21" height="11" filterUnits="userSpaceOnUse" color-interpolation-filters="sRGB">
<feFlood flood-opacity="0" result="BackgroundImageFix"/>
<feColorMatrix in="SourceAlpha" type="matrix" values="0 0 0 0 0 0 0 0 0 0 0 0 0 0 0 0 0 0 127 0" result="hardAlpha"/>
<feOffset dy="1"/>
<feGaussianBlur stdDeviation="2"/>
<feComposite in2="hardAlpha" operator="out"/>
<feColorMatrix type="matrix" values="0 0 0 0 0 0 0 0 0 0 0 0 0 0 0 0 0 0 0.15 0"/>
<feBlend mode="normal" in2="BackgroundImageFix" result="effect1_dropShadow_608_18789"/>
<feBlend mode="normal" in="SourceGraphic" in2="effect1_dropShadow_608_18789" result="shape"/>
</filter>
<linearGradient id="paint0_linear_608_18789" x1="18" y1="5" x2="18" y2="37" gradientUnits="userSpaceOnUse">
<stop stop-color="white"/>
<stop offset="1" stop-color="#D0D5DD"/>
</linearGradient>
<linearGradient id="paint1_linear_608_18789" x1="16.8889" y1="16.9277" x2="3.57133" y2="27.1066" gradientUnits="userSpaceOnUse">
<stop stop-color="#7F56D9"/>
<stop offset="1" stop-color="#432E73"/>
</linearGradient>
<linearGradient id="paint2_linear_608_18789" x1="16.8889" y1="16.084" x2="24.8146" y2="31.4658" gradientUnits="userSpaceOnUse">
<stop stop-color="#7F56D9"/>
<stop offset="1" stop-color="#432E73"/>
</linearGradient>
<clipPath id="clip0_608_18789">
<rect width="142" height="41" fill="white"/>
</clipPath>
<clipPath id="clip1_608_18789">
<rect x="2" y="5" width="32" height="32" rx="8" fill="white"/>
</clipPath>
</defs>
</svg>
