<svg width="19" height="20" viewBox="0 0 19 20" fill="none" xmlns="http://www.w3.org/2000/svg">
<path d="M13.7019 20.8622L13.7128 20.8699C14.6573 21.4712 15.7786 21.7324 16.8916 21.6101C18.0045 21.4879 19.0425 20.9896 19.8339 20.1976L20.5215 19.5101C20.6738 19.3578 20.7947 19.177 20.8772 18.978C20.9596 18.7791 21.0021 18.5658 21.0021 18.3504C21.0021 18.135 20.9596 17.9217 20.8772 17.7227C20.7947 17.5237 20.6738 17.3429 20.5215 17.1906L17.6216 14.2929C17.4693 14.1406 17.2885 14.0197 17.0895 13.9373C16.8906 13.8548 16.6773 13.8123 16.4619 13.8123C16.2465 13.8123 16.0332 13.8548 15.8342 13.9373C15.6352 14.0197 15.4544 14.1406 15.3021 14.2929C14.9947 14.6003 14.5777 14.773 14.1429 14.773C13.7082 14.773 13.2912 14.6003 12.9838 14.2929L8.34701 9.6551C8.03964 9.34764 7.86696 8.93068 7.86696 8.49592C7.86696 8.06116 8.03964 7.6442 8.34701 7.33673C8.49937 7.18447 8.62024 7.00367 8.7027 6.80468C8.78516 6.60569 8.82761 6.3924 8.82761 6.177C8.82761 5.9616 8.78516 5.74831 8.7027 5.54931C8.62024 5.35032 8.49937 5.16953 8.34701 5.01727L5.44823 2.11957C5.14076 1.8122 4.7238 1.63953 4.28904 1.63953C3.85428 1.63953 3.43732 1.8122 3.12986 2.11957L2.44123 2.80711C1.64941 3.59867 1.15134 4.6367 1.02931 5.74965C0.907282 6.8626 1.1686 7.98389 1.77009 8.92822L1.77665 8.93915C4.95327 13.6391 9.0014 17.6865 13.7019 20.8622V20.8622Z" stroke="#170F49" stroke-width="1.4" stroke-linecap="round" stroke-linejoin="round"/>
</svg>
